<mxfile host="app.diagrams.net" modified="2022-10-09T08:36:59.063Z" agent="5.0 (X11)" etag="PvyuedzBwSf3BIa6P9z2" version="20.4.0" type="github">
  <diagram id="wYGlgj-SfCMyBX6BnYjj" name="StrÃ¡nka-1">
    <mxGraphModel dx="942" dy="496" grid="1" gridSize="10" guides="1" tooltips="1" connect="1" arrows="1" fold="1" page="1" pageScale="1" pageWidth="827" pageHeight="1169" math="0" shadow="0">
      <root>
        <mxCell id="0" />
        <mxCell id="1" parent="0" />
        <mxCell id="PfnpTffGLOm3BiocZvvV-1" value="" style="shape=cylinder3;whiteSpace=wrap;html=1;boundedLbl=1;backgroundOutline=1;size=15;" vertex="1" parent="1">
          <mxGeometry x="300" y="200" width="60" height="80" as="geometry" />
        </mxCell>
        <mxCell id="PfnpTffGLOm3BiocZvvV-2" value="Actor" style="shape=umlActor;verticalLabelPosition=bottom;verticalAlign=top;html=1;outlineConnect=0;" vertex="1" parent="1">
          <mxGeometry x="480" y="280" width="30" height="60" as="geometry" />
        </mxCell>
      </root>
    </mxGraphModel>
  </diagram>
</mxfile>
